# xmcd CD database file
#
# Track frame offsets:
#	150
#	21780
#	45830
#	53985
#	87215
#	105393
#	122305
#	132650
#	153943
#
# Disc length: 2269 seconds
#
# Revision: 0
# Processed by: cddbd v1.5.1PL0 Copyright (c) Steve Scherf et al.
# Submitted via: CDex 1.51
#
DISCID=6308db09
DTITLE=Nappy Brown - Apples and Lemons
DYEAR=1990
DGENRE=Blues
TTITLE0=Fishin' Blues
TTITLE1=Ain't No Way
TTITLE2=Get Along
TTITLE3=Lemon Sqeezin' Daddy
TTITLE4=You Showed Me Love
TTITLE5=Lonely And Blue
TTITLE6=Don't Be Angry
TTITLE7=Small red apples
TTITLE8=Somethin's Gonna Jump Outta The Bushes And Grab You
EXTD=YEAR: 1990
EXTT0=
EXTT1=
EXTT2=
EXTT3=
EXTT4=
EXTT5=
EXTT6=
EXTT7=
EXTT8=
PLAYORDER=
